<?xml version="1.0" encoding="UTF-8" standalone="no"?>
<svg
   xmlns:dc="http://purl.org/dc/elements/1.1/"
   xmlns:cc="http://creativecommons.org/ns#"
   xmlns:rdf="http://www.w3.org/1999/02/22-rdf-syntax-ns#"
   xmlns:svg="http://www.w3.org/2000/svg"
   xmlns="http://www.w3.org/2000/svg"
   xmlns:sodipodi="http://sodipodi.sourceforge.net/DTD/sodipodi-0.dtd"
   xmlns:inkscape="http://www.inkscape.org/namespaces/inkscape"
   width="940"
   height="940"
   viewBox="0 0 248.70832 248.70833"
   version="1.1"
   id="svg8"
   inkscape:version="1.0.2 (e86c8708, 2021-01-15)"
   sodipodi:docname="default-bio-photo.svg">
  <defs
     id="defs2" />
  <sodipodi:namedview
     id="base"
     pagecolor="#ffffff"
     bordercolor="#666666"
     borderopacity="1.0"
     inkscape:pageopacity="0.0"
     inkscape:pageshadow="2"
     inkscape:zoom="0.13696747"
     inkscape:cx="1619.2049"
     inkscape:cy="914.22758"
     inkscape:document-units="px"
     inkscape:current-layer="g847"
     inkscape:document-rotation="0"
     showgrid="false"
     units="px"
     fit-margin-top="0"
     fit-margin-left="0"
     fit-margin-right="0"
     fit-margin-bottom="0"
     inkscape:window-width="1792"
     inkscape:window-height="1075"
     inkscape:window-x="0"
     inkscape:window-y="23"
     inkscape:window-maximized="0" />
  <metadata
     id="metadata5">
    <rdf:RDF>
      <cc:Work
         rdf:about="">
        <dc:format>image/svg+xml</dc:format>
        <dc:type
           rdf:resource="http://purl.org/dc/dcmitype/StillImage" />
        <dc:title></dc:title>
      </cc:Work>
    </rdf:RDF>
  </metadata>
  <g
     inkscape:label="Layer 1"
     inkscape:groupmode="layer"
     id="layer1"
     transform="translate(-23.056511,-80.886898)">
    <g
       id="g847"
       transform="translate(299.35714,183.69643)">
      <rect
         style="fill:#eeeeee;fill-opacity:1;stroke:none;stroke-width:0.945669"
         id="rect841"
         width="248.70833"
         height="248.70833"
         x="-276.30063"
         y="-102.80953" />
      <path
         style="fill:#d6d6d6;fill-opacity:1;stroke-width:0.264583"
         d="m -257.51517,136.69344 v -9.20538 l 1.35274,-2.37014 1.35274,-2.37015 2.39731,-3.43959 2.3973,-3.43958 1.46128,-1.85208 1.46129,-1.85209 2.39544,-2.76829 2.39545,-2.76829 3.30729,-3.29928 3.30729,-3.29928 3.43958,-2.941065 3.43959,-2.941061 2.11666,-1.588839 2.11667,-1.588839 2.11667,-1.471118 2.11666,-1.471115 2.24896,-1.406641 2.24896,-1.406639 1.5875,-0.909997 1.5875,-0.909995 4.10104,-2.062562 4.10104,-2.062559 3.43959,-1.441038 3.43958,-1.44104 3.96875,-1.340522 3.96875,-1.340522 2.38125,-0.65379 2.38125,-0.653791 2.91042,-0.677521 2.91041,-0.677522 3.70417,-0.656846 3.70417,-0.65685 3.57187,-0.409747 3.57188,-0.409749 3.70416,-0.265938 3.70417,-0.265941 h 5.15938 5.15937 l 3.70417,0.26792 3.70416,0.267917 3.57188,0.398724 3.57187,0.398725 2.38125,0.408863 2.38125,0.408866 2.59352,0.509807 2.59351,0.50981 2.69815,0.67787 2.69816,0.677871 2.64583,0.794033 2.64583,0.794036 3.43959,1.218491 3.43958,1.218491 3.21161,1.39506 3.211612,1.395061 3.468444,1.738043 3.468447,1.73804 2.977234,1.762162 2.977237,1.762159 2.645834,1.776542 2.645833,1.776542 3.079533,2.34672 3.079533,2.346722 3.138176,2.684317 3.138175,2.684315 3.842171,3.93027 3.84217,3.93026 2.807174,3.37351 2.807176,3.37351 2.346487,3.29863 2.346489,3.29863 1.785146,2.98515 1.785144,2.98516 7.94e-4,9.19427 7.91e-4,9.19427 h -105.70104 -105.70105 z m 100.2205,-86.174224 -3.36388,-0.368692 -2.85383,-0.681133 -2.85383,-0.681135 -2.51354,-0.811136 -2.51354,-0.811136 -3.43958,-1.669071 -3.43959,-1.669071 -2.51354,-1.654204 -2.51354,-1.654204 -1.19063,-0.951347 -1.19062,-0.951346 -1.32292,-1.233043 -1.32291,-1.23304 -1.34504,-1.283738 -1.34504,-1.283737 -1.72201,-2.116666 -1.72201,-2.116667 -1.33616,-1.984375 -1.33614,-1.984375 -1.16196,-2.116667 -1.16196,-2.116667 -0.95681,-2.248958 -0.95681,-2.248958 -0.81623,-2.513542 -0.81623,-2.513542 -0.3832,-1.8520831 -0.38319,-1.8520834 -0.41455,-2.576838 -0.41454,-2.5768406 v -4.7192936 -4.719291 l 0.39042,-2.7812656 0.39042,-2.7812687 0.78044,-3.019475 0.78045,-3.019478 0.78866,-2.133481 0.78867,-2.133484 1.46954,-3.025891 1.46953,-3.025894 1.7996,-2.693292 1.7996,-2.693289 1.8939,-2.206162 1.89389,-2.206162 2.07171,-1.980287 2.07171,-1.980288 1.19063,-0.918632 1.19062,-0.918632 0.13229,-0.139128 0.1323,-0.139128 2.25072,-1.49502 2.25072,-1.49502 2.77636,-1.463053 2.77636,-1.463053 2.77813,-1.046713 2.77812,-1.046713 3.33207,-0.820768 3.33206,-0.820769 2.09189,-0.304346 2.0919,-0.304346 5.02708,-0.01043 5.02709,-0.01043 2.38125,0.339105 2.38125,0.339103 2.24896,0.507119 2.24895,0.507118 2.4996,0.816571 2.4996,0.816572 2.34391,1.03146 2.34392,1.03146 1.97703,1.085058 1.97703,1.085057 2.70446,1.905624 2.70445,1.905624 1.04889,0.910602 1.04889,0.910602 1.87896,1.852083 1.87895,1.852084 1.46696,1.719791 1.46696,1.719792 1.29605,1.852084 1.29605,1.852083 0.95867,1.5875 0.95866,1.5875 0.79332,1.5875 0.7933,1.5875 0.92742,2.248958 0.92742,2.248959 0.79893,2.645833 0.79893,2.645833 0.612248,3.307292 0.612251,3.3072919 -0.0013,5.8208334 -0.0013,5.8208334 -0.348159,2.1166667 -0.34816,2.1166667 -0.51426,2.1166669 -0.51426,2.116667 -0.81383,2.513541 -0.81383,2.513542 -0.40529,0.926042 -0.40529,0.926041 -0.8608,1.852084 -0.8608,1.852083 -1.01699,1.732865 -1.017,1.732862 -1.84479,2.632763 -1.84479,2.63276 -3.57917,3.591912 -3.57916,3.591915 -2.01768,1.47892 -2.01768,1.478923 -2.08337,1.296075 -2.08336,1.296077 -2.51354,1.234189 -2.51354,1.234191 -1.85208,0.69196 -1.85209,0.691959 -2.77812,0.779886 -2.77813,0.779886 -3.43958,0.518144 -3.43958,0.518144 -3.3073,0.119605 -3.30729,0.119607 -3.36388,-0.368694 z"
         id="path849" />
    </g>
  </g>
</svg>
